{
	"asset": 
	{
		"version": "2.0",
		"generator": "Unreal Engine 4.27 Sketchfab 2.1.0"
	},
	"scene": 0,
	"accessors": [
		{
			"bufferView": 0,
			"count": 28218,
			"type": "SCALAR",
			"componentType": 5123
		},
		{
			"bufferView": 1,
			"count": 6445,
			"type": "VEC3",
			"componentType": 5126,
			"min": [ -2.52748966,
				-1.14440915e-07,
				-2.52235746
			],
			"max": [ 1.94421017,
				5.67367792,
				1.92440426
			]
		},
		{
			"bufferView": 2,
			"count": 6445,
			"type": "VEC3",
			"componentType": 5126
		},
		{
			"bufferView": 3,
			"count": 6445,
			"type": "VEC4",
			"componentType": 5126
		},
		{
			"bufferView": 4,
			"count": 6445,
			"type": "VEC2",
			"componentType": 5126
		},
		{
			"bufferView": 5,
			"count": 6445,
			"type": "VEC2",
			"componentType": 5126
		},
		{
			"bufferView": 6,
			"count": 10788,
			"type": "SCALAR",
			"componentType": 5123
		},
		{
			"bufferView": 7,
			"count": 7192,
			"type": "VEC3",
			"componentType": 5126,
			"min": [ -2.62061405,
				1.3579886,
				-2.64619112
			],
			"max": [ 2.0818975,
				5.92304897,
				2.02639174
			]
		},
		{
			"bufferView": 8,
			"count": 7192,
			"type": "VEC3",
			"componentType": 5126
		},
		{
			"bufferView": 9,
			"count": 7192,
			"type": "VEC4",
			"componentType": 5126
		},
		{
			"bufferView": 10,
			"count": 7192,
			"type": "VEC2",
			"componentType": 5126
		},
		{
			"bufferView": 11,
			"count": 7192,
			"type": "VEC2",
			"componentType": 5126
		}
	],
	"buffers": [
		{
			"uri": "Tree2.bin",
			"byteLength": 841684
		}
	],
	"bufferViews": [
		{
			"buffer": 0,
			"byteLength": 56436,
			"target": 34963
		},
		{
			"buffer": 0,
			"byteLength": 77340,
			"byteOffset": 56436,
			"target": 34962
		},
		{
			"buffer": 0,
			"byteLength": 77340,
			"byteOffset": 133776,
			"target": 34962
		},
		{
			"buffer": 0,
			"byteLength": 103120,
			"byteOffset": 211116,
			"target": 34962
		},
		{
			"buffer": 0,
			"byteLength": 51560,
			"byteOffset": 314236,
			"target": 34962
		},
		{
			"buffer": 0,
			"byteLength": 51560,
			"byteOffset": 365796,
			"target": 34962
		},
		{
			"buffer": 0,
			"byteLength": 21576,
			"byteOffset": 417356,
			"target": 34963
		},
		{
			"buffer": 0,
			"byteLength": 86304,
			"byteOffset": 438932,
			"target": 34962
		},
		{
			"buffer": 0,
			"byteLength": 86304,
			"byteOffset": 525236,
			"target": 34962
		},
		{
			"buffer": 0,
			"byteLength": 115072,
			"byteOffset": 611540,
			"target": 34962
		},
		{
			"buffer": 0,
			"byteLength": 57536,
			"byteOffset": 726612,
			"target": 34962
		},
		{
			"buffer": 0,
			"byteLength": 57536,
			"byteOffset": 784148,
			"target": 34962
		}
	],
	"images": [
		{
			"uri": "M_Wood_BaseColor.png"
		},
		{
			"uri": "M_Wood_MetallicRoughness.png"
		},
		{
			"uri": "M_Wood_Normal.png"
		},
		{
			"uri": "M_Wood_Occlusion.png"
		},
		{
			"uri": "M_Leaves_BaseColor.png"
		},
		{
			"uri": "M_Leaves_MetallicRoughness.png"
		},
		{
			"uri": "M_Leaves_Normal.png"
		},
		{
			"uri": "M_Leaves_Occlusion.png"
		}
	],
	"materials": [
		{
			"name": "M_Wood",
			"pbrMetallicRoughness": 
			{
				"baseColorTexture": 
				{
					"index": 0
				},
				"metallicRoughnessTexture": 
				{
					"index": 1
				}
			},
			"normalTexture": 
			{
				"index": 2
			},
			"occlusionTexture": 
			{
				"index": 3
			}
		},
		{
			"name": "M_Leaves",
			"pbrMetallicRoughness": 
			{
				"baseColorTexture": 
				{
					"index": 4
				},
				"metallicRoughnessTexture": 
				{
					"index": 5
				}
			},
			"normalTexture": 
			{
				"index": 6
			},
			"occlusionTexture": 
			{
				"index": 7
			},
			"alphaMode": "MASK",
			"alphaCutoff": 0.333299994,
			"doubleSided": true
		}
	],
	"meshes": [
		{
			"name": "Tree2",
			"primitives": [
				{
					"attributes": 
					{
						"POSITION": 1,
						"NORMAL": 2,
						"TANGENT": 3,
						"TEXCOORD_0": 4,
						"TEXCOORD_1": 5
					},
					"indices": 0,
					"material": 0
				},
				{
					"attributes": 
					{
						"POSITION": 7,
						"NORMAL": 8,
						"TANGENT": 9,
						"TEXCOORD_0": 10,
						"TEXCOORD_1": 11
					},
					"indices": 6,
					"material": 1
				}
			]
		}
	],
	"nodes": [
		{
			"mesh": 0
		}
	],
	"samplers": [
		{
			"name": "M_Wood_BaseColor",
			"minFilter": 9987,
			"magFilter": 9729
		},
		{
			"name": "M_Wood_MetallicRoughness",
			"minFilter": 9987,
			"magFilter": 9729
		},
		{
			"name": "M_Wood_Normal",
			"minFilter": 9987,
			"magFilter": 9729
		},
		{
			"name": "M_Wood_Occlusion",
			"minFilter": 9987,
			"magFilter": 9729
		},
		{
			"name": "M_Leaves_BaseColor",
			"minFilter": 9987,
			"magFilter": 9729
		},
		{
			"name": "M_Leaves_MetallicRoughness",
			"minFilter": 9987,
			"magFilter": 9729
		},
		{
			"name": "M_Leaves_Normal",
			"minFilter": 9987,
			"magFilter": 9729
		},
		{
			"name": "M_Leaves_Occlusion",
			"minFilter": 9987,
			"magFilter": 9729
		}
	],
	"scenes": [
		{
			"nodes": [ 0 ]
		}
	],
	"textures": [
		{
			"name": "M_Wood_BaseColor",
			"sampler": 0,
			"source": 0
		},
		{
			"name": "M_Wood_MetallicRoughness",
			"sampler": 1,
			"source": 1
		},
		{
			"name": "M_Wood_Normal",
			"sampler": 2,
			"source": 2
		},
		{
			"name": "M_Wood_Occlusion",
			"sampler": 3,
			"source": 3
		},
		{
			"name": "M_Leaves_BaseColor",
			"sampler": 4,
			"source": 4
		},
		{
			"name": "M_Leaves_MetallicRoughness",
			"sampler": 5,
			"source": 5
		},
		{
			"name": "M_Leaves_Normal",
			"sampler": 6,
			"source": 6
		},
		{
			"name": "M_Leaves_Occlusion",
			"sampler": 7,
			"source": 7
		}
	]
}