# Blender 4.1.1
# www.blender.org
mtllib tilec.mtl
o 원형
v 0.000000 0.214308 -4.677487
v -0.912532 0.214308 -4.587610
v -1.789997 0.214308 -4.321434
v -2.598672 0.214308 -3.889188
v -3.307483 0.214308 -3.307483
v -3.889188 0.214308 -2.598672
v -4.321434 0.214308 -1.789997
v -4.587610 0.214308 -0.912532
v -4.677487 0.214308 0.000000
v -4.587610 0.214308 0.912532
v -4.321434 0.214308 1.789997
v -3.889188 0.214308 2.598672
v -3.307483 0.214308 3.307483
v -2.598672 0.214308 3.889188
v -1.789997 0.214308 4.321434
v -0.912532 0.214308 4.587610
v 0.000000 0.214308 4.677487
v 0.912532 0.214308 4.587610
v 1.789997 0.214308 4.321434
v 2.598672 0.214308 3.889188
v 3.307483 0.214308 3.307483
v 3.889188 0.214308 2.598672
v 4.321434 0.214308 1.789997
v 4.587610 0.214308 0.912532
v 4.677487 0.214308 0.000000
v 4.587610 0.214308 -0.912532
v 4.321434 0.214308 -1.789997
v 3.889188 0.214308 -2.598672
v 3.307483 0.214308 -3.307483
v 2.598672 0.214308 -3.889188
v 1.789997 0.214308 -4.321434
v 0.912532 0.214308 -4.587610
v 0.000000 0.022056 -4.677487
v -0.912532 0.022056 -4.587610
v -1.789997 0.022056 -4.321434
v -2.598672 0.022056 -3.889188
v -3.307483 0.022056 -3.307483
v -3.889188 0.022056 -2.598672
v -4.321434 0.022056 -1.789997
v -4.587610 0.022056 -0.912532
v -4.677487 0.022056 0.000000
v -4.587610 0.022056 0.912532
v -4.321434 0.022056 1.789997
v -3.889188 0.022056 2.598672
v -3.307483 0.022056 3.307483
v -2.598672 0.022056 3.889188
v -1.789997 0.022056 4.321434
v -0.912532 0.022056 4.587610
v 0.000000 0.022056 4.677487
v 0.912532 0.022056 4.587610
v 1.789997 0.022056 4.321434
v 2.598672 0.022056 3.889188
v 3.307483 0.022056 3.307483
v 3.889188 0.022056 2.598672
v 4.321434 0.022056 1.789997
v 4.587610 0.022056 0.912532
v 4.677487 0.022056 0.000000
v 4.587610 0.022056 -0.912532
v 4.321434 0.022056 -1.789997
v 3.889188 0.022056 -2.598672
v 3.307483 0.022056 -3.307483
v 2.598672 0.022056 -3.889188
v 1.789997 0.022056 -4.321434
v 0.912532 0.022056 -4.587610
vn -0.0000 1.0000 -0.0000
vn -0.0000 -1.0000 -0.0000
vn -0.2903 -0.0000 0.9569
vn -0.2903 -0.0000 -0.9569
vn 0.6344 -0.0000 -0.7730
vn -0.0980 -0.0000 0.9952
vn -0.4714 -0.0000 -0.8819
vn 0.4714 -0.0000 -0.8819
vn 0.0980 -0.0000 0.9952
vn -0.6344 -0.0000 -0.7730
vn 0.2903 -0.0000 -0.9569
vn 0.2903 -0.0000 0.9569
vn -0.7730 -0.0000 -0.6344
vn 0.0980 -0.0000 -0.9952
vn 0.4714 -0.0000 0.8819
vn -0.8819 -0.0000 -0.4714
vn 0.6344 -0.0000 0.7730
vn -0.9569 -0.0000 -0.2903
vn 0.7730 -0.0000 0.6344
vn -0.9952 -0.0000 -0.0980
vn 0.8819 -0.0000 0.4714
vn -0.9952 -0.0000 0.0980
vn 0.9569 -0.0000 0.2903
vn -0.9569 -0.0000 0.2903
vn 0.9952 -0.0000 0.0980
vn -0.8819 -0.0000 0.4714
vn 0.9952 -0.0000 -0.0980
vn -0.7730 -0.0000 0.6344
vn 0.9569 -0.0000 -0.2903
vn -0.6344 -0.0000 0.7730
vn 0.8819 -0.0000 -0.4714
vn -0.4714 -0.0000 0.8819
vn -0.0980 -0.0000 -0.9952
vn 0.7730 -0.0000 -0.6344
vt 0.490393 0.322922
vt 0.500000 0.225377
vt 0.500000 0.274623
vt 0.471547 0.368419
vt 0.055812 0.409366
vt 0.009607 0.322922
vt 0.055812 0.090634
vt 0.471547 0.131581
vt 0.490393 0.177078
vt 0.444188 0.409366
vt 0.409366 0.444188
vt 0.409366 0.055812
vt 0.444188 0.090634
vt 0.368419 0.471547
vt 0.322922 0.490393
vt 0.368419 0.028453
vt 0.274623 0.500000
vt 0.322922 0.009607
vt 0.225377 0.500000
vt 0.274623 -0.000000
vt 0.177078 0.490393
vt 0.225377 -0.000000
vt 0.131581 0.471547
vt 0.177078 0.009607
vt 0.090634 0.444188
vt 0.131581 0.028453
vt 0.090634 0.055812
vt 0.028453 0.368419
vt 0.028453 0.131581
vt -0.000000 0.274623
vt 0.009607 0.177078
vt 0.000000 0.225377
vt 0.500000 0.725377
vt 0.500000 0.774623
vt 0.490393 0.822922
vt 0.490393 0.677078
vt 0.090634 0.555812
vt 0.028453 0.868419
vt 0.028453 0.631581
vt 0.471547 0.868419
vt 0.444188 0.909366
vt 0.471547 0.631581
vt 0.444188 0.590634
vt 0.409366 0.944188
vt 0.368419 0.971547
vt 0.409366 0.555812
vt 0.368419 0.528453
vt 0.322922 0.990393
vt 0.322922 0.509607
vt 0.274623 1.000000
vt 0.274623 0.500000
vt 0.225377 1.000000
vt 0.225377 0.500000
vt 0.177078 0.990393
vt 0.177078 0.509607
vt 0.131581 0.971547
vt 0.131581 0.528453
vt 0.090634 0.944188
vt 0.055812 0.909366
vt 0.055812 0.590634
vt 0.009607 0.822922
vt 0.009607 0.677078
vt -0.000000 0.774623
vt -0.000000 0.725377
vt 0.500000 0.858829
vt 0.500000 0.824007
vt 0.510325 0.824007
vt 0.510325 0.858829
vt 0.500000 0.339967
vt 0.500000 0.294469
vt 0.510325 0.294469
vt 0.510325 0.339967
vt 0.500000 0.103128
vt 0.500000 0.062181
vt 0.510325 0.062181
vt 0.510325 0.103128
vt 0.500000 0.886189
vt 0.510325 0.886189
vt 0.500000 0.380913
vt 0.510325 0.380913
vt 0.500000 0.148625
vt 0.510325 0.148625
vt 0.510325 0.027359
vt 0.510325 -0.000000
vt 0.520650 -0.000000
vt 0.520650 0.027359
vt 0.500000 0.415735
vt 0.510325 0.415735
vt 0.500000 0.196924
vt 0.510325 0.196924
vt 0.510325 0.062181
vt 0.520650 0.062181
vt 0.500000 0.443094
vt 0.510325 0.443094
vt 0.500000 0.246170
vt 0.510325 0.246170
vt 0.510325 0.103128
vt 0.520650 0.103128
vt 0.500000 0.470454
vt 0.500000 0.443094
vt 0.510325 0.443094
vt 0.510325 0.470454
vt 0.510325 0.148625
vt 0.520650 0.148625
vt 0.500000 0.505276
vt 0.510325 0.505276
vt 0.510325 0.196924
vt 0.520650 0.196924
vt 0.500000 0.546222
vt 0.510325 0.546222
vt 0.510325 0.246170
vt 0.520650 0.246170
vt 0.500000 0.591719
vt 0.510325 0.591719
vt 0.510325 0.294469
vt 0.520650 0.294469
vt 0.500000 0.640019
vt 0.510325 0.640019
vt 0.510325 0.339967
vt 0.520650 0.339967
vt 0.500000 0.689264
vt 0.510325 0.689264
vt 0.510325 0.380913
vt 0.520650 0.380913
vt 0.500000 0.737564
vt 0.510325 0.737564
vt 0.510325 0.415735
vt 0.520650 0.415735
vt 0.500000 0.783061
vt 0.510325 0.783061
vt 0.500000 0.027359
vt 0.500000 0.000000
vt 0.510325 0.000000
vt 0.510325 0.027359
s 0
usemtl 매테리얼
f 2/1/1 32/2/1 1/3/1
f 3/4/1 32/2/1 2/1/1
f 13/5/1 15/6/1 20/7/1
f 32/2/1 30/8/1 31/9/1
f 4/10/1 30/8/1 32/2/1
f 5/11/1 30/8/1 4/10/1
f 4/10/1 32/2/1 3/4/1
f 30/8/1 28/12/1 29/13/1
f 6/14/1 28/12/1 30/8/1
f 7/15/1 28/12/1 6/14/1
f 7/15/1 27/16/1 28/12/1
f 8/17/1 27/16/1 7/15/1
f 8/17/1 26/18/1 27/16/1
f 9/19/1 26/18/1 8/17/1
f 9/19/1 25/20/1 26/18/1
f 10/21/1 25/20/1 9/19/1
f 10/21/1 24/22/1 25/20/1
f 11/23/1 24/22/1 10/21/1
f 11/23/1 23/24/1 24/22/1
f 12/25/1 23/24/1 11/23/1
f 12/25/1 22/26/1 23/24/1
f 13/5/1 22/26/1 12/25/1
f 21/27/1 22/26/1 20/7/1
f 6/14/1 30/8/1 5/11/1
f 20/7/1 22/26/1 13/5/1
f 14/28/1 15/6/1 13/5/1
f 15/6/1 19/29/1 20/7/1
f 16/30/1 19/29/1 15/6/1
f 16/30/1 18/31/1 19/29/1
f 17/32/1 18/31/1 16/30/1
f 34/33/2 33/34/2 64/35/2
f 35/36/2 34/33/2 64/35/2
f 45/37/2 52/38/2 47/39/2
f 64/35/2 63/40/2 62/41/2
f 36/42/2 64/35/2 62/41/2
f 37/43/2 36/42/2 62/41/2
f 36/42/2 35/36/2 64/35/2
f 62/41/2 61/44/2 60/45/2
f 38/46/2 62/41/2 60/45/2
f 39/47/2 38/46/2 60/45/2
f 39/47/2 60/45/2 59/48/2
f 40/49/2 39/47/2 59/48/2
f 40/49/2 59/48/2 58/50/2
f 41/51/2 40/49/2 58/50/2
f 41/51/2 58/50/2 57/52/2
f 42/53/2 41/51/2 57/52/2
f 42/53/2 57/52/2 56/54/2
f 43/55/2 42/53/2 56/54/2
f 43/55/2 56/54/2 55/56/2
f 44/57/2 43/55/2 55/56/2
f 44/57/2 55/56/2 54/58/2
f 45/37/2 44/57/2 54/58/2
f 53/59/2 52/38/2 54/58/2
f 38/46/2 37/43/2 62/41/2
f 52/38/2 45/37/2 54/58/2
f 46/60/2 45/37/2 47/39/2
f 47/39/2 52/38/2 51/61/2
f 48/62/2 47/39/2 51/61/2
f 48/62/2 51/61/2 50/63/2
f 49/64/2 48/62/2 50/63/2
f 16/65/3 15/66/3 47/67/3 48/68/3
f 3/69/4 2/70/4 34/71/4 35/72/4
f 30/73/5 29/74/5 61/75/5 62/76/5
f 17/77/6 16/65/6 48/68/6 49/78/6
f 4/79/7 3/69/7 35/72/7 36/80/7
f 31/81/8 30/73/8 62/76/8 63/82/8
f 18/83/9 17/84/9 49/85/9 50/86/9
f 5/87/10 4/79/10 36/80/10 37/88/10
f 32/89/11 31/81/11 63/82/11 64/90/11
f 19/91/12 18/83/12 50/86/12 51/92/12
f 6/93/13 5/87/13 37/88/13 38/94/13
f 1/95/14 32/89/14 64/90/14 33/96/14
f 20/97/15 19/91/15 51/92/15 52/98/15
f 7/99/16 6/100/16 38/101/16 39/102/16
f 21/103/17 20/97/17 52/98/17 53/104/17
f 8/105/18 7/99/18 39/102/18 40/106/18
f 22/107/19 21/103/19 53/104/19 54/108/19
f 9/109/20 8/105/20 40/106/20 41/110/20
f 23/111/21 22/107/21 54/108/21 55/112/21
f 10/113/22 9/109/22 41/110/22 42/114/22
f 24/115/23 23/111/23 55/112/23 56/116/23
f 11/117/24 10/113/24 42/114/24 43/118/24
f 25/119/25 24/115/25 56/116/25 57/120/25
f 12/121/26 11/117/26 43/118/26 44/122/26
f 26/123/27 25/119/27 57/120/27 58/124/27
f 13/125/28 12/121/28 44/122/28 45/126/28
f 27/127/29 26/123/29 58/124/29 59/128/29
f 14/129/30 13/125/30 45/126/30 46/130/30
f 28/131/31 27/132/31 59/133/31 60/134/31
f 15/66/32 14/129/32 46/130/32 47/67/32
f 2/70/33 1/95/33 33/96/33 34/71/33
f 29/74/34 28/131/34 60/134/34 61/75/34
